<?xml version="1.0" encoding="UTF-8"?>
<svg xmlns="http://www.w3.org/2000/svg" xmlns:xlink="http://www.w3.org/1999/xlink" width="198.624" height="141.931" viewBox="0 0 198.624 141.931">
<defs>
<clipPath id="clip-0">
<path clip-rule="nonzero" d="M 0 0.101562 L 198.25 0.101562 L 198.25 141.761719 L 0 141.761719 Z M 0 0.101562 "/>
</clipPath>
</defs>
<g clip-path="url(#clip-0)">
<path fill="none" stroke-width="0.19925" stroke-linecap="butt" stroke-linejoin="miter" stroke="rgb(50%, 50%, 50%)" stroke-opacity="1" stroke-miterlimit="10" d="M 0.00175476 -0.00139658 L 198.427451 -0.00139658 M 0.00175476 28.345131 L 198.427451 28.345131 M 0.00175476 56.695573 L 198.427451 56.695573 M 0.00175476 85.042101 L 198.427451 85.042101 M 0.00175476 113.388629 L 198.427451 113.388629 M 0.00175476 141.723416 L 198.427451 141.723416 M 0.00175476 -0.00139658 L 0.00175476 141.735157 M 28.348283 -0.00139658 L 28.348283 141.735157 M 56.694811 -0.00139658 L 56.694811 141.735157 M 85.041339 -0.00139658 L 85.041339 141.735157 M 113.387867 -0.00139658 L 113.387867 141.735157 M 141.734395 -0.00139658 L 141.734395 141.735157 M 170.080923 -0.00139658 L 170.080923 141.735157 M 198.419624 -0.00139658 L 198.419624 141.735157 " transform="matrix(0.998111, 0, 0, -0.998111, 0.0998111, 141.662669)"/>
</g>
<path fill-rule="nonzero" fill="rgb(100%, 0%, 0%)" fill-opacity="0.3" stroke-width="0.3985" stroke-linecap="butt" stroke-linejoin="miter" stroke="rgb(100%, 0%, 0%)" stroke-opacity="0.3" stroke-miterlimit="10" d="M 113.387867 70.86688 C 113.387867 94.348748 94.351899 113.388629 70.866118 113.388629 C 47.38425 113.388629 28.348283 94.348748 28.348283 70.86688 C 28.348283 47.385013 47.38425 28.345131 70.866118 28.345131 C 94.351899 28.345131 113.387867 47.385013 113.387867 70.86688 Z M 113.387867 70.86688 " transform="matrix(0.998111, 0, 0, -0.998111, 0.0998111, 141.662669)"/>
<path fill-rule="nonzero" fill="rgb(0%, 67.83905%, 93.728638%)" fill-opacity="0.3" stroke-width="0.3985" stroke-linecap="butt" stroke-linejoin="miter" stroke="rgb(0%, 67.83905%, 93.728638%)" stroke-opacity="0.3" stroke-miterlimit="10" d="M 170.080923 70.86688 C 170.080923 94.348748 151.044955 113.388629 127.559174 113.388629 C 104.077306 113.388629 85.041339 94.348748 85.041339 70.86688 C 85.041339 47.385013 104.077306 28.345131 127.559174 28.345131 C 151.044955 28.345131 170.080923 47.385013 170.080923 70.86688 Z M 170.080923 70.86688 " transform="matrix(0.998111, 0, 0, -0.998111, 0.0998111, 141.662669)"/>
</svg>
