<?xml version="1.0" encoding="UTF-8" standalone="no"?>
<!-- Generator: Adobe Illustrator 26.0.3, SVG Export Plug-In . SVG Version: 6.00 Build 0)  -->

<svg
   version="1.1"
   id="Layer_1"
   x="0px"
   y="0px"
   viewBox="0 0 120.94488 120.94488"
   xml:space="preserve"
   sodipodi:docname="fav.svg"
   width="32mm"
   height="32mm"
   inkscape:version="1.3.2 (091e20e, 2023-11-25, custom)"
   xmlns:inkscape="http://www.inkscape.org/namespaces/inkscape"
   xmlns:sodipodi="http://sodipodi.sourceforge.net/DTD/sodipodi-0.dtd"
   xmlns="http://www.w3.org/2000/svg"
   xmlns:svg="http://www.w3.org/2000/svg"
   xmlns:rdf="http://www.w3.org/1999/02/22-rdf-syntax-ns#"
   xmlns:cc="http://creativecommons.org/ns#"
   xmlns:dc="http://purl.org/dc/elements/1.1/"><title
   id="title4">Group.svg</title><defs
   id="defs3"><inkscape:path-effect
     effect="perspective-envelope"
     up_left_point="389.56,350.69"
     up_right_point="422.82,350.7882"
     down_left_point="381.06,395.17962"
     down_right_point="411.82,395.17962"
     id="path-effect61"
     is_visible="true"
     lpeversion="1"
     deform_type="perspective"
     horizontal_mirror="false"
     vertical_mirror="false"
     overflow_perspective="true" /><inkscape:path-effect
     effect="perspective-envelope"
     up_left_point="389.56,350.69"
     up_right_point="422.82,350.7882"
     down_left_point="381.06,395.17962"
     down_right_point="411.82,395.17962"
     id="path-effect48"
     is_visible="true"
     lpeversion="1"
     deform_type="perspective"
     horizontal_mirror="false"
     vertical_mirror="false"
     overflow_perspective="true" /><inkscape:path-effect
     effect="perspective-envelope"
     up_left_point="389.56,350.69"
     up_right_point="422.82,350.7882"
     down_left_point="381.06,395.17962"
     down_right_point="411.82,395.17962"
     id="path-effect30"
     is_visible="true"
     lpeversion="1"
     deform_type="perspective"
     horizontal_mirror="false"
     vertical_mirror="false"
     overflow_perspective="true" /><inkscape:path-effect
     effect="envelope"
     id="path-effect29"
     is_visible="true"
     lpeversion="1"
     yy="true"
     xx="true"
     bendpath1="m 383.66169,350.7882 h 33.05613"
     bendpath2="m 416.71782,350.7882 v 44.39142"
     bendpath3="m 383.66169,395.17962 h 33.05613"
     bendpath4="m 383.66169,350.7882 v 44.39142" /><inkscape:path-effect
     effect="lattice2"
     gridpoint0="383.66169,350.7882"
     gridpoint1="416.71782,350.7882"
     gridpoint2="383.66169,395.17962"
     gridpoint3="416.71782,395.17962"
     gridpoint4="391.92573,350.7882"
     gridpoint5="408.45379,350.7882"
     gridpoint6="391.92573,395.17962"
     gridpoint7="408.45379,395.17962"
     gridpoint8x9="400.18976,350.7882"
     gridpoint10x11="400.18976,395.17962"
     gridpoint12="383.66169,361.88606"
     gridpoint13="416.71782,361.88606"
     gridpoint14="383.66169,384.08177"
     gridpoint15="416.71782,384.08177"
     gridpoint16="391.92573,361.88606"
     gridpoint17="408.45379,361.88606"
     gridpoint18="391.92573,384.08177"
     gridpoint19="408.45379,384.08177"
     gridpoint20x21="400.18976,361.88606"
     gridpoint22x23="400.18976,384.08177"
     gridpoint24x26="383.66169,372.98391"
     gridpoint25x27="416.71782,372.98391"
     gridpoint28x30="391.92573,372.98391"
     gridpoint29x31="408.45379,372.98391"
     gridpoint32x33x34x35="400.18976,372.98391"
     id="path-effect28"
     is_visible="true"
     lpeversion="1"
     horizontal_mirror="true"
     vertical_mirror="false"
     perimetral="false"
     live_update="true" /><inkscape:path-effect
     effect="perspective-envelope"
     up_left_point="383.66,350.7882"
     up_right_point="417.91,350.7882"
     down_left_point="383.66169,395.17962"
     down_right_point="416.71782,395.17962"
     id="path-effect27"
     is_visible="true"
     lpeversion="1"
     deform_type="perspective"
     horizontal_mirror="true"
     vertical_mirror="false"
     overflow_perspective="false" /><rect
     x="24.564262"
     y="13.960984"
     width="209.7682"
     height="127.06263"
     id="rect3" /></defs><sodipodi:namedview
   id="namedview3"
   pagecolor="#e5e5e5"
   bordercolor="#666666"
   borderopacity="1.0"
   inkscape:showpageshadow="2"
   inkscape:pageopacity="0.0"
   inkscape:pagecheckerboard="0"
   inkscape:deskcolor="#d1d1d1"
   inkscape:zoom="2.8284271"
   inkscape:cx="-2.4748737"
   inkscape:cy="74.422989"
   inkscape:window-width="1920"
   inkscape:window-height="1009"
   inkscape:window-x="-8"
   inkscape:window-y="-8"
   inkscape:window-maximized="1"
   inkscape:current-layer="g1"
   inkscape:document-units="mm" />
<style
   type="text/css"
   id="style1">
	.st0{fill:#616161;}
	.st1{fill:#F37726;}
</style>



<metadata
   id="metadata4"><rdf:RDF><cc:Work
       rdf:about=""><dc:title>Group.svg</dc:title></cc:Work></rdf:RDF></metadata><rect
   style="opacity:1;fill:#ffffff;fill-opacity:1;stroke:none;stroke-width:0.693654;stroke-linecap:round;stroke-linejoin:round;stroke-dashoffset:85.3039"
   id="rect2"
   width="120.94488"
   height="120.94489"
   x="4.4408921e-15"
   y="-1.7763568e-15"
   ry="29.162289"
   inkscape:label="wrapper" /><g
   id="g1"
   transform="matrix(1.1088647,0,0,1.1088647,174.37978,172.66863)"><path
     class="st1"
     d="m -126.48486,-59.362255 c -5.84725,-1.612288 -9.99346,-4.030711 -12.54497,-7.456816 -2.4452,-3.627644 -3.72095,-7.960657 -3.61464,-12.394446 v -8.766791 c 0,-3.224577 -0.74418,-5.642999 -2.33888,-7.456827 -1.59469,-1.813816 -3.82726,-2.619961 -7.01664,-2.619961 v -6.247604 c 3.18938,0 5.52826,-0.90691 7.01664,-2.61996 1.48838,-1.71305 2.33888,-4.23225 2.33888,-7.45682 v -8.7668 c -0.10631,-4.43378 1.16944,-8.76679 3.72094,-12.39443 2.44521,-3.42611 6.59142,-5.84453 12.43867,-7.45682 l 1.80733,5.03839 c -2.97678,0.80614 -5.52831,2.72073 -7.0167,5.34069 -1.48839,2.92227 -2.23259,6.2476 -2.12627,9.47217 v 8.7668 c 0.10631,2.72074 -0.63788,5.44146 -1.91364,7.8599 -1.27575,2.21688 -3.18939,4.13147 -5.63458,5.23992 2.44519,1.20921 4.46514,3.023036 5.7409,5.340695 1.27575,2.418422 1.91363,5.139157 1.91363,7.859882 v 8.766802 c -0.10631,3.224567 0.63788,6.549908 2.12627,9.472172 1.48839,2.619961 3.93361,4.534552 7.0167,5.340696 z"
     id="path84-9"
     style="fill:#f37726;stroke-width:1.03504"
     inkscape:label="ChavesAbre" /><path
     class="st1"
     d="m -78.963855,-59.362712 c 5.847249,-1.612289 9.99348,-4.030711 12.545007,-7.456816 2.445213,-3.627644 3.720976,-7.960658 3.614663,-12.394446 v -8.766791 c 0,-3.224577 0.744195,-5.642999 2.338899,-7.456827 1.594705,-1.813816 3.827291,-2.619961 7.016699,-2.619961 v -6.247607 c -3.189408,0 -5.528308,-0.90691 -7.016699,-2.61996 -1.48839,-1.71305 -2.338899,-4.23225 -2.338899,-7.45681 v -8.76681 c 0.106313,-4.43377 -1.16945,-8.76679 -3.720977,-12.39443 -2.445213,-3.42611 -6.591444,-5.84453 -12.438693,-7.45682 l -1.807332,5.0384 c 2.976781,0.80613 5.528308,2.72072 7.016699,5.34068 1.488391,2.92228 2.232586,6.24761 2.126272,9.47217 v 8.76681 c -0.106313,2.72073 0.637882,5.44146 1.913646,7.85989 1.275763,2.21688 3.189408,4.13147 5.634621,5.23992 -2.445213,1.20921 -4.465172,3.023039 -5.740935,5.340697 -1.275764,2.418423 -1.913645,5.139158 -1.913645,7.859883 v 8.766802 c 0.106313,3.224567 -0.637882,6.549908 -2.126273,9.472172 -1.48839,2.61996 -3.933604,4.534552 -7.016699,5.340696 z"
     id="path86-8"
     style="fill:#f37726;stroke-width:1.03504"
     inkscape:label="ChavesFecha" /><path
     style="-inkscape-font-specification:'Brava Slab';fill:#616161;stroke-width:1.19971"
     d="m -124.92684,-110.5417 v -14.63397 h 43.693717 v 14.63397 h -5.715216 l -0.77431,-9.52259 h -12.204742 v 41.416276 l 7.374459,0.735194 v 4.726287 h -21.054098 v -4.726287 l 7.41133,-0.735194 v -41.416276 h -12.2416 l -0.77433,9.52259 z"
     id="text3-8-1"
     inkscape:label="T_tikzx" /></g></svg>
