<?xml version="1.0" encoding="UTF-8" standalone="no"?>
<!-- Generator: Adobe Illustrator 26.0.3, SVG Export Plug-In . SVG Version: 6.00 Build 0)  -->

<svg
   version="1.1"
   id="Layer_1"
   x="0px"
   y="0px"
   viewBox="0 0 442.01468 96.000001"
   xml:space="preserve"
   sodipodi:docname="logo_wide_borda.svg"
   width="442.01468"
   height="96"
   inkscape:version="1.3.2 (091e20e, 2023-11-25, custom)"
   xmlns:inkscape="http://www.inkscape.org/namespaces/inkscape"
   xmlns:sodipodi="http://sodipodi.sourceforge.net/DTD/sodipodi-0.dtd"
   xmlns="http://www.w3.org/2000/svg"
   xmlns:svg="http://www.w3.org/2000/svg"
   xmlns:rdf="http://www.w3.org/1999/02/22-rdf-syntax-ns#"
   xmlns:cc="http://creativecommons.org/ns#"
   xmlns:dc="http://purl.org/dc/elements/1.1/"><title
   id="title4">Group.svg</title><defs
   id="defs3"><inkscape:path-effect
     effect="perspective-envelope"
     up_left_point="389.56,350.69"
     up_right_point="422.82,350.7882"
     down_left_point="381.06,395.17962"
     down_right_point="411.82,395.17962"
     id="path-effect61"
     is_visible="true"
     lpeversion="1"
     deform_type="perspective"
     horizontal_mirror="false"
     vertical_mirror="false"
     overflow_perspective="true" /><inkscape:path-effect
     effect="perspective-envelope"
     up_left_point="389.56,350.69"
     up_right_point="422.82,350.7882"
     down_left_point="381.06,395.17962"
     down_right_point="411.82,395.17962"
     id="path-effect48"
     is_visible="true"
     lpeversion="1"
     deform_type="perspective"
     horizontal_mirror="false"
     vertical_mirror="false"
     overflow_perspective="true" /><inkscape:path-effect
     effect="perspective-envelope"
     up_left_point="389.56,350.69"
     up_right_point="422.82,350.7882"
     down_left_point="381.06,395.17962"
     down_right_point="411.82,395.17962"
     id="path-effect30"
     is_visible="true"
     lpeversion="1"
     deform_type="perspective"
     horizontal_mirror="false"
     vertical_mirror="false"
     overflow_perspective="true" /><inkscape:path-effect
     effect="envelope"
     id="path-effect29"
     is_visible="true"
     lpeversion="1"
     yy="true"
     xx="true"
     bendpath1="m 383.66169,350.7882 h 33.05613"
     bendpath2="m 416.71782,350.7882 v 44.39142"
     bendpath3="m 383.66169,395.17962 h 33.05613"
     bendpath4="m 383.66169,350.7882 v 44.39142" /><inkscape:path-effect
     effect="lattice2"
     gridpoint0="383.66169,350.7882"
     gridpoint1="416.71782,350.7882"
     gridpoint2="383.66169,395.17962"
     gridpoint3="416.71782,395.17962"
     gridpoint4="391.92573,350.7882"
     gridpoint5="408.45379,350.7882"
     gridpoint6="391.92573,395.17962"
     gridpoint7="408.45379,395.17962"
     gridpoint8x9="400.18976,350.7882"
     gridpoint10x11="400.18976,395.17962"
     gridpoint12="383.66169,361.88606"
     gridpoint13="416.71782,361.88606"
     gridpoint14="383.66169,384.08177"
     gridpoint15="416.71782,384.08177"
     gridpoint16="391.92573,361.88606"
     gridpoint17="408.45379,361.88606"
     gridpoint18="391.92573,384.08177"
     gridpoint19="408.45379,384.08177"
     gridpoint20x21="400.18976,361.88606"
     gridpoint22x23="400.18976,384.08177"
     gridpoint24x26="383.66169,372.98391"
     gridpoint25x27="416.71782,372.98391"
     gridpoint28x30="391.92573,372.98391"
     gridpoint29x31="408.45379,372.98391"
     gridpoint32x33x34x35="400.18976,372.98391"
     id="path-effect28"
     is_visible="true"
     lpeversion="1"
     horizontal_mirror="true"
     vertical_mirror="false"
     perimetral="false"
     live_update="true" /><inkscape:path-effect
     effect="perspective-envelope"
     up_left_point="383.67346,350.7882"
     up_right_point="417.9975,350.7882"
     down_left_point="383.67346,395.17962"
     down_right_point="417.9975,395.17962"
     id="path-effect27"
     is_visible="true"
     lpeversion="1"
     deform_type="perspective"
     horizontal_mirror="true"
     vertical_mirror="false"
     overflow_perspective="false" /><rect
     x="24.564262"
     y="13.960984"
     width="209.7682"
     height="127.06263"
     id="rect3" /></defs><sodipodi:namedview
   id="namedview3"
   pagecolor="#9b9b9b"
   bordercolor="#666666"
   borderopacity="1.0"
   inkscape:showpageshadow="2"
   inkscape:pageopacity="0.0"
   inkscape:pagecheckerboard="0"
   inkscape:deskcolor="#d1d1d1"
   inkscape:zoom="1.0003134"
   inkscape:cx="223.92983"
   inkscape:cy="115.46382"
   inkscape:window-width="1920"
   inkscape:window-height="1009"
   inkscape:window-x="-8"
   inkscape:window-y="-8"
   inkscape:window-maximized="1"
   inkscape:current-layer="layer6"
   inkscape:document-units="px" />
<style
   type="text/css"
   id="style1">
	.st0{fill:#616161;}
	.st1{fill:#F37726;}
</style>



<metadata
   id="metadata4"><rdf:RDF><cc:Work
       rdf:about=""><dc:title>Group.svg</dc:title></cc:Work></rdf:RDF></metadata><g
   inkscape:groupmode="layer"
   id="layer2"
   inkscape:label="Guias"
   style="display:none"
   transform="translate(-74.082413,-333.73099)"><rect
     style="display:inline;fill:#ff0000;fill-opacity:1;stroke:none;stroke-width:1.87309;stroke-linecap:round;stroke-linejoin:round;stroke-dasharray:none;stroke-dashoffset:85.3039;stroke-opacity:1"
     id="rect17"
     width="5.1750002"
     height="20.126003"
     x="388.22437"
     y="356.10715" /><rect
     style="display:inline;opacity:0.44;fill:#ff8c00;fill-opacity:1;stroke:none;stroke-width:1.36072;stroke-linecap:round;stroke-linejoin:round;stroke-dasharray:none;stroke-dashoffset:85.3039;stroke-opacity:1"
     id="rect18"
     width="10.907785"
     height="4.5189557"
     x="382.28647"
     y="350.95261" /><rect
     style="display:none;opacity:0.44;fill:#ff8c00;fill-opacity:1;stroke:none;stroke-width:1.26315;stroke-linecap:round;stroke-linejoin:round;stroke-dasharray:none;stroke-dashoffset:85.3039;stroke-opacity:1"
     id="rect19"
     width="10.907785"
     height="3.8941514"
     x="385.00436"
     y="391.43991" /><rect
     style="display:none;opacity:0.44;fill:#ff8c00;fill-opacity:1;stroke:none;stroke-width:1.37501;stroke-linecap:round;stroke-linejoin:round;stroke-dasharray:none;stroke-dashoffset:85.3039;stroke-opacity:1"
     id="rect20"
     width="10.907785"
     height="4.6144366"
     x="385.49036"
     y="376.99295" /><rect
     style="display:inline;opacity:0.44;fill:#ff8c00;fill-opacity:1;stroke:none;stroke-width:0.867647;stroke-linecap:round;stroke-linejoin:round;stroke-dasharray:none;stroke-dashoffset:85.3039;stroke-opacity:1"
     id="rect22"
     width="5.198637"
     height="3.8551013"
     x="404.89658"
     y="363.69861" /><rect
     style="display:inline;opacity:0.44;fill:#ff8c00;fill-opacity:1;stroke:none;stroke-width:0.907156;stroke-linecap:round;stroke-linejoin:round;stroke-dasharray:none;stroke-dashoffset:85.3039;stroke-opacity:1"
     id="rect23"
     width="5.6828604"
     height="3.8551013"
     x="406.99625"
     y="391.29303" /><rect
     style="opacity:0.44;fill:#ff8c00;fill-opacity:1;stroke:none;stroke-width:1.35431;stroke-linecap:round;stroke-linejoin:round;stroke-dasharray:none;stroke-dashoffset:85.3039;stroke-opacity:1"
     id="rect21"
     width="3.4635017"
     height="4.4466534"
     x="541.44635"
     y="-66.585747"
     transform="rotate(50.139108)"
     ry="0" /><rect
     style="display:inline;opacity:0.44;fill:#ff8c00;fill-opacity:1;stroke:none;stroke-width:0.900927;stroke-linecap:round;stroke-linejoin:round;stroke-dasharray:none;stroke-dashoffset:85.3039;stroke-opacity:1"
     id="rect62"
     width="5.1283464"
     height="4.2134628"
     x="339.78278"
     y="352.26669" /><rect
     style="display:inline;opacity:0.44;fill:#ff8c00;fill-opacity:1;stroke:none;stroke-width:0.923531;stroke-linecap:round;stroke-linejoin:round;stroke-dasharray:none;stroke-dashoffset:85.3039;stroke-opacity:1"
     id="rect63"
     width="5.3492479"
     height="4.2447028"
     x="324.27548"
     y="352.26855" /><rect
     style="display:inline;opacity:0.44;fill:#ff8c00;fill-opacity:1;stroke:none;stroke-width:0.923531;stroke-linecap:round;stroke-linejoin:round;stroke-dasharray:none;stroke-dashoffset:85.3039;stroke-opacity:1"
     id="rect64"
     width="5.3492479"
     height="4.2447028"
     x="354.99243"
     y="352.26074" /><rect
     style="display:inline;opacity:0.44;fill:#ff8c00;fill-opacity:1;stroke:none;stroke-width:0.923531;stroke-linecap:round;stroke-linejoin:round;stroke-dasharray:none;stroke-dashoffset:85.3039;stroke-opacity:1"
     id="rect65"
     width="5.3492479"
     height="4.2447028"
     x="339.78299"
     y="390.93683" /></g><g
   inkscape:groupmode="layer"
   id="layer5"
   inkscape:label="LogoSmall"
   transform="translate(-74.082413,-333.73099)" /><g
   inkscape:groupmode="layer"
   id="layer6"
   inkscape:label="LogoGrande"
   transform="translate(-74.082413,-333.73099)"><rect
     style="fill:#ffffff;stroke:none;stroke-width:1.91923;stroke-linecap:round;stroke-miterlimit:0;stroke-dashoffset:85.3039;paint-order:markers fill stroke"
     id="rect1"
     width="442.01468"
     height="96"
     x="74.082413"
     y="333.73099"
     rx="14.733823" /><g
     id="g1"
     transform="translate(18,8.66462)"><path
       class="st1"
       d="m 324.08986,412.40176 c -5.5,-1.51654 -9.4,-3.79134 -11.8,-7.01398 -2.3,-3.41221 -3.5,-7.4879 -3.4,-11.65838 v -8.24616 c 0,-3.03308 -0.7,-5.30788 -2.2,-7.01399 -1.5,-1.7061 -3.6,-2.46437 -6.6,-2.46437 v -5.87658 c 3,0 5.2,-0.85305 6.6,-2.46437 1.4,-1.61132 2.2,-3.98091 2.2,-7.01398 v -8.24617 c -0.1,-4.17047 1.1,-8.24616 3.5,-11.65837 2.3,-3.22264 6.2,-5.49744 11.7,-7.01398 l 1.7,4.73918 c -2.8,0.75826 -5.2,2.55915 -6.6,5.02352 -1.4,2.74873 -2.1,5.87658 -2,8.90965 v 8.24617 c 0.1,2.55916 -0.6,5.11831 -1.8,7.39312 -1.2,2.08523 -3,3.88612 -5.3,4.92874 2.3,1.1374 4.2,2.84351 5.4,5.02353 1.2,2.2748 1.8,4.83396 1.8,7.39311 v 8.24617 c -0.1,3.03307 0.6,6.16093 2,8.90965 1.4,2.46437 3.7,4.26526 6.6,5.02353 z"
       id="path2-4"
       style="fill:#f37726;stroke-width:0.973568"
       inkscape:label="ChavesAbre" /><g
       id="g79"
       inkscape:label="Tikz"><path
         style="-inkscape-font-specification:'Brava Slab';fill:#616161"
         d="m 122.55398,63.285131 23.68879,-35.757794 h -17.66926 l -0.59896,5.690101 h -4.1927 V 23.154943 h 29.07941 v 4.372394 l -23.65884,35.757794 h 19.37629 l 0.59896,-5.720049 h 4.16276 v 10.062494 h -30.78645 z"
         transform="matrix(1.0163794,0,0,0.96503136,297.11795,329.91689)"
         id="path26"
         inkscape:label="Z_tikz" /><path
         style="-inkscape-font-specification:'Brava Slab';fill:#616161"
         d="m 75.176405,34.385406 v 29.019516 l 4.462238,0.658854 v 3.5638 H 65.593077 V 64.183568 L 70.085262,63.58461 V 39.057279 l -4.492185,-0.628906 v -3.444009 z"
         transform="matrix(1.0163794,0,0,0.96503136,297.11795,329.91689)"
         id="path24"
         inkscape:label="I_tikz" /><path
         style="-inkscape-font-specification:'Brava Slab';fill:#616161"
         d="m 67.988909,25.430984 q 0,-1.647135 1.167968,-2.815103 1.167968,-1.167968 2.755207,-1.167968 1.647135,0 2.815103,1.167968 1.167968,1.167968 1.167968,2.815103 0,1.587238 -1.167968,2.755207 -1.13802,1.167968 -2.815103,1.167968 -1.587239,0 -2.755207,-1.167968 -1.167968,-1.167969 -1.167968,-2.755207 z"
         transform="matrix(1.0163794,0,0,0.96503136,297.11795,329.91689)"
         id="path23"
         inkscape:label="PingoI_tikz" /><path
         style="-inkscape-font-specification:'Brava Slab';fill:#616161"
         d="M 26.720702,35.673166 V 23.154943 H 62.208965 V 35.673166 H 57.56704 l -0.628906,-8.145829 h -9.912755 v 35.428367 l 5.98958,0.628906 v 4.042966 H 35.914708 V 63.58461 l 6.019528,-0.628906 V 27.527337 h -9.942703 l -0.628906,8.145829 z"
         transform="matrix(1.0163794,0,0,0.96503136,297.11795,329.91689)"
         id="text3"
         inkscape:label="T_tikzx" /><path
         style="-inkscape-font-specification:'Brava Slab';fill:#f37726;fill-opacity:1"
         d="m 100.60977,21.55587 -5.516216,27.958438 12.983246,-9.8932 -3.38907,-0.434449 0.7304,-3.476376 12.64572,0.02725 -0.80377,3.473266 -4.20571,0.633386 -11.10686,8.405854 8.12288,15.61461 3.53642,0.56144 -0.75323,3.201484 H 101.1081 l 0.68685,-3.204038 2.95516,-0.447974 -6.618628,-12.837489 -3.951367,3.005915 -1.917001,9.716136 3.955242,0.562206 -0.655465,3.205244 H 82.589287 l 0.581955,-3.208066 4.3173,-0.560597 7.043648,-37.296052 -4.36954,-0.683985 0.671952,-3.704183 z"
         id="path25"
         transform="matrix(1.0163794,0,0,0.96503136,297.11795,329.91689)"
         inkscape:label="k_tikz" /><path
         style="-inkscape-font-specification:'Brava Slab';fill:#f37726;fill-opacity:1"
         d="m 100.60977,21.55587 -5.516216,27.958438 12.983246,-9.8932 -3.38907,-0.434449 0.7304,-3.476376 12.64572,0.02725 -0.80377,3.473266 -4.20571,0.633386 -11.10686,8.405854 8.12288,15.61461 3.53642,0.56144 -0.75323,3.201484 H 101.1081 l 0.68685,-3.204038 2.95516,-0.447974 -6.618628,-12.837489 -3.951367,3.005915 -1.917001,9.716136 3.955242,0.562206 -0.655465,3.205244 H 82.589287 l 0.581955,-3.208066 4.3173,-0.560597 7.043648,-37.296052 -4.36954,-0.683985 0.671952,-3.704183 z"
         id="path80"
         inkscape:label="k_tikz"
         transform="matrix(1.0163794,0,0,0.96503136,297.11795,329.91689)" /></g><g
       id="g80"
       inkscape:label="Jupyter"
       transform="translate(0,-3.7044585)"><path
         id="use7"
         d="m 1680.0334,2476.4323 c 0,-0.7657 0,-1.4245 -0.053,-2.0299 h 1.0684 v 1.2731 h 0.053 c 0.1121,-0.3929 0.3438,-0.7412 0.6629,-0.9965 0.3191,-0.2552 0.7097,-0.4048 1.1177,-0.4279 0.1123,-0.015 0.226,-0.015 0.3383,0 v 1.1128 c -0.1361,-0.016 -0.2735,-0.016 -0.4096,0 -0.4041,0.016 -0.7887,0.1779 -1.082,0.4565 -0.2933,0.2785 -0.4751,0.6542 -0.5116,1.057 -0.033,0.1822 -0.051,0.3668 -0.053,0.552 v 3.4633 h -1.1752 v -4.4515 z"
         style="mix-blend-mode:normal;fill:#616161;fill-opacity:1"
         inkscape:label="r_jupyter"
         transform="matrix(5.1471927,0,0,5.1471927,-8370.0931,-12375.869)" /><path
         id="use6"
         d="m 1673.6472,2477.869 c -0.024,0.3019 0.017,0.6055 0.1221,0.8898 0.1047,0.2842 0.2698,0.5423 0.484,0.7565 0.2142,0.2142 0.4723,0.3793 0.7566,0.484 0.2842,0.1046 0.5878,0.1463 0.8897,0.1222 0.6107,0.014 1.2175,-0.1017 1.7806,-0.3384 l 0.2048,0.8903 c -0.6911,0.2847 -1.4341,0.4212 -2.1812,0.4007 -0.4356,0.03 -0.8724,-0.035 -1.2806,-0.1898 -0.4081,-0.1549 -0.778,-0.3962 -1.0841,-0.7074 -0.3062,-0.3112 -0.5414,-0.685 -0.6895,-1.0956 -0.1481,-0.4107 -0.2057,-0.8485 -0.1687,-1.2835 0,-1.9587 1.1663,-3.5078 3.0715,-3.5078 2.1367,0 2.6709,1.8696 2.6709,3.0626 0.011,0.1838 0.011,0.3682 0,0.552 h -4.6028 z m 3.4899,-0.8903 c 0.034,-0.238 0.017,-0.4806 -0.05,-0.7115 -0.067,-0.2309 -0.1834,-0.4447 -0.3403,-0.6269 -0.1569,-0.1822 -0.3511,-0.3287 -0.5694,-0.4296 -0.2183,-0.1008 -0.4557,-0.1537 -0.6962,-0.155 -0.4892,0.035 -0.9475,0.2522 -1.2851,0.6079 -0.3376,0.3558 -0.5302,0.8248 -0.54,1.3151 z"
         style="mix-blend-mode:normal;fill:#616161;fill-opacity:1"
         transform="matrix(5.1471927,0,0,5.1471927,-8370.0931,-12375.869)"
         inkscape:label="e_jupyter" /><path
         id="use5"
         d="m 1669.7401,2472.54 v 1.8696 h 1.7094 v 0.8903 h -1.7094 v 3.5078 c 0,0.8013 0.2315,1.2642 0.8903,1.2642 0.234,0 0.4675,-0.023 0.6945,-0.08 l 0.053,0.8903 c -0.3404,0.1179 -0.6995,0.1722 -1.0595,0.1602 -0.2384,0.015 -0.4772,-0.022 -0.7,-0.1079 -0.2229,-0.086 -0.4244,-0.2193 -0.5909,-0.3906 -0.3626,-0.4851 -0.5281,-1.0895 -0.463,-1.6916 v -3.5612 h -1.0149 v -0.8903 h 1.0327 v -1.5847 z"
         style="mix-blend-mode:normal;fill:#616161;fill-opacity:1"
         inkscape:label="t_jupyter"
         transform="matrix(5.1471927,0,0,5.1471927,-8370.0931,-12375.869)" /><path
         id="use4"
         d="m 1661.7476,2474.4078 1.4334,3.8372 c 0.1514,0.4273 0.3116,0.9437 0.4185,1.3265 0.1246,-0.3917 0.2581,-0.8903 0.4184,-1.3532 l 1.2998,-3.8105 h 1.2554 l -1.7806,4.6296 c -0.8903,2.2257 -1.4334,3.3742 -2.2525,4.0686 -0.4125,0.3768 -0.9155,0.6406 -1.4601,0.7657 l -0.2938,-0.9972 c 0.3808,-0.1251 0.7343,-0.3215 1.0417,-0.5787 0.4343,-0.3539 0.779,-0.8054 1.006,-1.3176 0.049,-0.089 0.082,-0.1851 0.098,-0.2849 -0.01,-0.1074 -0.037,-0.2126 -0.08,-0.3116 l -2.4216,-5.9917 h 1.2998 z"
         style="mix-blend-mode:normal;fill:#616161;fill-opacity:1"
         transform="matrix(5.1471927,0,0,5.1471927,-8370.0931,-12375.869)"
         inkscape:label="y_jupyter" /><path
         id="use3"
         d="m 1653.4434,2476.5326 c 0,-0.8279 0,-1.5046 -0.053,-2.1189 h 1.0684 l 0.053,1.1129 c 0.238,-0.4021 0.5807,-0.732 0.9915,-0.9546 0.4107,-0.2227 0.8742,-0.3297 1.3411,-0.3096 1.5847,0 2.7777,1.3265 2.7777,3.303 0,2.3326 -1.4334,3.49 -2.9825,3.49 -0.3965,0.018 -0.7909,-0.067 -1.1449,-0.2467 -0.3541,-0.1793 -0.6558,-0.447 -0.8761,-0.7772 v 0 3.5612 h -1.1752 v -7.0333 z m 1.1752,1.7361 c 0,0.1616 0.021,0.3225 0.053,0.4808 0.101,0.3953 0.331,0.7456 0.6535,0.9956 0.3225,0.2499 0.7191,0.3852 1.1271,0.3843 1.2553,0 1.9943,-1.0238 1.9943,-2.5106 0,-1.2998 -0.6944,-2.4127 -1.9498,-2.4127 -0.4967,0.041 -0.9616,0.2612 -1.3074,0.6201 -0.3459,0.3589 -0.5489,0.8317 -0.5711,1.3297 z"
         style="mix-blend-mode:normal;fill:#616161;fill-opacity:1"
         transform="matrix(5.1471927,0,0,5.1471927,-8370.0931,-12375.869)"
         inkscape:label="p_jupyter" /><path
         id="use2"
         d="m 1651.182,2479.1331 c 0,0.6677 0,1.2642 0.053,1.7806 h -1.0595 l -0.071,-1.0595 c -0.2216,0.3749 -0.5385,0.6844 -0.9185,0.897 -0.38,0.2127 -0.8095,0.321 -1.2449,0.3138 -1.0328,0 -2.2614,-0.5609 -2.2614,-2.8489 v -3.8016 h 1.193 v 3.5612 c 0,1.2375 0.3828,2.0655 1.4601,2.0655 0.2216,0 0.4415,-0.04 0.6467,-0.1232 0.2053,-0.084 0.3917,-0.2076 0.5484,-0.3643 0.1567,-0.1568 0.2806,-0.3432 0.3643,-0.5484 0.084,-0.2053 0.1256,-0.4251 0.1233,-0.6468 v -3.9885 h 1.1929 v 4.7275 z"
         style="mix-blend-mode:normal;fill:#616161;fill-opacity:1"
         inkscape:label="u_jupyter"
         transform="matrix(5.1471927,0,0,5.1471927,-8370.0931,-12375.869)" /><path
         id="use1"
         d="m 1642.285,2479.8353 c 0,1.5581 -0.1247,2.0655 -0.4452,2.4394 -0.3567,0.3213 -0.8198,0.4989 -1.2998,0.4986 l 0.1246,0.8903 c 0.7442,0.01 1.4664,-0.2528 2.0299,-0.7389 0.3033,-0.3698 0.5289,-0.7969 0.6635,-1.2558 0.1346,-0.4588 0.1754,-0.9401 0.12,-1.4151 v -5.8938 h -1.193 v 5.4397 z"
         style="mix-blend-mode:normal;fill:#616161;fill-opacity:1"
         inkscape:label="J_jupyter"
         transform="matrix(5.1471927,0,0,5.1471927,-8370.0931,-12375.869)" /></g><path
       class="st1"
       d="m 453.51675,412.40133 c 5.5,-1.51654 9.4,-3.79134 11.8,-7.01398 2.3,-3.41221 3.5,-7.4879 3.4,-11.65838 v -8.24616 c 0,-3.03308 0.7,-5.30788 2.2,-7.01399 1.5,-1.7061 3.6,-2.46437 6.6,-2.46437 v -5.87658 c -3,0 -5.2,-0.85305 -6.6,-2.46437 -1.4,-1.61132 -2.2,-3.98091 -2.2,-7.01398 v -8.24617 c 0.1,-4.17047 -1.1,-8.24616 -3.5,-11.65837 -2.3,-3.22264 -6.2,-5.49744 -11.7,-7.01398 l -1.7,4.73918 c 2.8,0.75826 5.2,2.55915 6.6,5.02352 1.4,2.74873 2.1,5.87658 2,8.90965 v 8.24617 c -0.1,2.55916 0.6,5.11831 1.8,7.39312 1.2,2.08523 3,3.88612 5.3,4.92874 -2.3,1.1374 -4.2,2.84351 -5.4,5.02353 -1.2,2.2748 -1.8,4.83396 -1.8,7.39311 v 8.24617 c 0.1,3.03307 -0.6,6.16093 -2,8.90965 -1.4,2.46437 -3.7,4.26526 -6.6,5.02353 z"
       id="path7"
       style="fill:#f37726;stroke-width:0.973568"
       inkscape:label="ChavesFecha" /></g></g></svg>
